<svg xmlns="http://www.w3.org/2000/svg" viewBox="0 0 434.19 319.43"><title>404 Page</title><g id="Layer_2" data-name="Layer 2"><g id="Capa_1" data-name="Capa 1"><path d="M349.24,95.35a48.18,48.18,0,0,0,8.65.91h68.8a6,6,0,1,0,0-12H358a38.22,38.22,0,0,1-6.08-.61h0A34.61,34.61,0,0,1,325.15,46a26.55,26.55,0,0,1,29.29-23.41,20,20,0,0,1,17.67,22.11,14.79,14.79,0,0,1-16.36,13.07A10.65,10.65,0,0,1,346.35,46a7.34,7.34,0,0,1,8.09-6.46,6,6,0,0,0,1.33-11.93A19.31,19.31,0,0,0,334.43,44.7a22.64,22.64,0,0,0,20,25A26.81,26.81,0,0,0,384,46.05a32.05,32.05,0,0,0-28.27-35.37,38.56,38.56,0,0,0-42.54,34A46.57,46.57,0,0,0,349.24,95.35Z"/><path d="M426.69,299.56H310.27c-4.75,0-1.59-1.89-1.59-1.89l28-13.54a7.75,7.75,0,0,0,3.51-10.58l-18.39-35.27a2.41,2.41,0,0,1,1.05-3.57c26.32-13.61,102.69-52.79,102.69-52.79,3.91-2,3.66-4.67-.56-5.91L318.28,144.65c-4.22-1.24-4.47-3.9-.56-5.91L356.21,119c3.91-2,3.77-5-.31-6.62l-82.71-33c-4.09-1.62-4.24-4.6-.32-6.61l19-9.79c3.92-2,3.84-5.15-.16-7L169.85.66A6.06,6.06,0,0,0,161,5.21L137.15,126.15s-.5,4.78-4.48,1.69l-12.15-9.46a11.43,11.43,0,0,0-13.68,0L7,196.15c-4.34,3.38-3.43,7.3-3,8.42s2.06,4.77,7.57,4.77h10a1.15,1.15,0,0,1,1.31,1.1v85.91s.13,3.21-4.12,3.21H7.5a7.5,7.5,0,0,0,0,15H153.74s1.72,0,1,1.63c-1.28,2.86,1.44,4.22,4.86,2.46l7-3.62a4.9,4.9,0,0,1,1.91-.47H426.69a7.5,7.5,0,0,0,0-15ZM316.27,277.35l-16.59,8a8.25,8.25,0,0,1-10.85-3.64L280.78,266a8.19,8.19,0,0,1,3.42-10.88l16-8.52A7.94,7.94,0,0,1,311,249.94l8.77,16.83A7.74,7.74,0,0,1,316.27,277.35Zm-39.44,22.21H204.6c-8.29,0,2.66-5.41,2.66-5.41l53.7-27.6a2.46,2.46,0,0,1,3.79,1.06c3.08,6.26,11.26,22.12,14.76,28.84C281.33,300,276.83,299.56,276.83,299.56ZM155.82,109,172.07,26.7a6.06,6.06,0,0,1,8.83-4.55l76.4,34.69c4,1.82,4.08,5,.17,7L236.69,74.49c-3.91,2-3.77,5,.32,6.62l82.71,33c4.09,1.63,4.23,4.61.31,6.62l-42.54,21.87c-3.91,2-3.66,4.67.56,5.91l106.74,31.36c4.22,1.24,4.47,3.9.56,5.92L186.13,288.15c-3.92,2-5.93.26-4.48-3.89l36.6-105c1.45-4.16-.57-5.91-4.48-3.9l-42.54,21.87c-3.91,2-6.25.16-5.2-4.11l21.33-86.44c1-4.27-1.29-6.12-5.2-4.11L161.39,113.2C157.47,115.21,155,113.33,155.82,109Zm3.88,21.92c3.91-2,6.25-.16,5.2,4.11l-3.09,12.52s-.41,2.54-2.63.93c-3-2.17-8.17-6.34-10.33-8.06-3-2.41.2-4,.2-4ZM27.25,195.57l84.44-65.75a3.14,3.14,0,0,1,2-.89A4,4,0,0,1,116,130l40.25,31.35a2.92,2.92,0,0,1,1.34,3.48c-3.64,14.12-14,56.63-14,56.63-1.06,4.27,1.28,6.12,5.2,4.11l38.49-19.79c3.91-2,5.93-.26,4.48,3.9l-30.51,87.55s-1.08,2.31-3.15,2.31H142.56a1.5,1.5,0,0,1-1.59-1.79V278.21c0-2.18,0-5.75.05-7.93,0-1.17-.08-11.68-7.75-19.44-5-5-11.79-7.6-20.25-7.6-8.11,0-14.64,2.5-19.39,7.42-7.56,7.81-7.41,18.56-7.37,19.76.07,2.13.14,5.62.14,7.79v19.14s-.07,2.21-2.94,2.21H37.81a2.77,2.77,0,0,1-3-3.29V207.34a10,10,0,0,0-7.54-9.7C26.5,197.46,25.56,197,27.25,195.57Zm71,74.43c0-.06,0-6.81,4-11,2.44-2.53,6-3.76,10.76-3.76,15.19,0,16,12.44,16,14.89,0,2.22-.05,5.86-.05,8.08v19.64a1.7,1.7,0,0,1-1.82,1.71H100.34c-2.25,0-1.94-2.33-1.94-2.33v-19C98.4,275.93,98.33,272.25,98.25,270Z"/></g></g></svg>