<svg xmlns="http://www.w3.org/2000/svg" viewBox="0 0 245.4 232.4"><title>Protected Page</title><g id="Layer_2" data-name="Layer 2"><g id="Layer_1-2" data-name="Layer 1"><path d="M244.1,101.7c-8.6-46.8-59.7-78.7-103.4-85h0a92.49,92.49,0,0,0-10.8-.9c-.8-.1-1.7,0-2.5-.1V4.8A4.8,4.8,0,0,0,122.6,0a4.87,4.87,0,0,0-4.8,4.8V15.7a17,17,0,0,0-2.3.1,94.17,94.17,0,0,0-11,.9C60.7,23,9.6,55,1.1,101.7l-1.1,6,6.1-.3c25.7-1.2,50.8,4.7,68.9,16.2l2,1.3,2.2-.8c13.1-4.8,28.5-6.1,36.6-6.5l2-.1v90.1a15.1,15.1,0,1,1-30.2,0,4.8,4.8,0,1,0-9.6,0,24.8,24.8,0,1,0,49.6,0V117.5l2,.1c9.9.4,24.2,1.9,36.6,6.5l2.2.8,2-1.3c18.1-11.5,43.2-17.4,68.9-16.2l6.1.3Zm-77,12.6c-13-4.4-27.3-5.8-37.2-6.3l-3.6-.1h-7.4l-3.4.1c-10,.4-24.3,1.9-37.3,6.3-18-10.8-40.9-16.6-65.3-16.6H12c10.8-39.1,55.4-65.8,93.9-71.3a96.39,96.39,0,0,1,10.1-.8,102.86,102.86,0,0,1,13.6,0,96.86,96.86,0,0,1,9.9.8h0C178,32,222.6,58.6,233.4,97.7,208.5,97.5,185.3,103.3,167.1,114.3Z"/></g></g></svg>